<svg width="26" height="26" viewBox="0 0 26 26" fill="none" xmlns="http://www.w3.org/2000/svg">
<path d="M4.09226 12.9377C3.06524 11.1468 2.56934 9.68452 2.27033 8.20223C1.82809 6.00996 2.84013 3.86846 4.51666 2.50201C5.22524 1.92449 6.0375 2.12181 6.4565 2.87352L7.40245 4.57057C8.15223 5.9157 8.52712 6.58826 8.45276 7.30131C8.37841 8.01436 7.87282 8.5951 6.86164 9.7566L4.09226 12.9377ZM4.09226 12.9377C6.17106 16.5624 9.43333 19.8265 13.0622 21.9077L4.09226 12.9377ZM13.0622 21.9077C14.8531 22.9347 16.3154 23.4306 17.7977 23.7296C19.9899 24.1719 22.1315 23.1598 23.4979 21.4832C24.0754 20.7747 23.8781 19.9625 23.1264 19.5434L21.4294 18.5975C20.0842 17.8477 19.4117 17.4728 18.6986 17.5472C17.9856 17.6215 17.4048 18.1271 16.2433 19.1383L13.0622 21.9077Z" fill="#684DF4"/>
<path d="M4.09226 12.9377C3.06524 11.1468 2.56934 9.68452 2.27033 8.20223C1.82809 6.00996 2.84013 3.86846 4.51666 2.50201C5.22524 1.92449 6.0375 2.12181 6.4565 2.87352L7.40245 4.57057C8.15223 5.9157 8.52712 6.58826 8.45276 7.30131C8.37841 8.01436 7.87282 8.5951 6.86164 9.7566L4.09226 12.9377ZM4.09226 12.9377C6.17106 16.5624 9.43333 19.8265 13.0622 21.9077M13.0622 21.9077C14.8531 22.9347 16.3154 23.4306 17.7977 23.7296C19.9899 24.1719 22.1315 23.1598 23.4979 21.4832C24.0754 20.7747 23.8781 19.9625 23.1264 19.5434L21.4294 18.5975C20.0842 17.8477 19.4117 17.4728 18.6986 17.5472C17.9856 17.6215 17.4048 18.1271 16.2433 19.1383L13.0622 21.9077Z" stroke="#684DF4" stroke-width="2" stroke-linejoin="round"/>
</svg>
