<svg width="30" height="30" viewBox="0 0 30 30" fill="none" xmlns="http://www.w3.org/2000/svg">
<rect width="30" height="30" rx="5" fill="#684DF4"/>
<path d="M14.9995 7.5C10.8573 7.5 7.49951 10.8578 7.49951 15C7.49951 18.7433 10.2423 21.846 13.828 22.4093V17.1675H11.923V15H13.828V13.3478C13.828 11.4683 14.947 10.4303 16.6608 10.4303C17.4813 10.4303 18.3393 10.5765 18.3393 10.5765V12.4215H17.3943C16.462 12.4215 16.1718 12.9998 16.1718 13.593V15H18.2515L17.9193 17.1675H16.1718V22.4093C19.7568 21.8468 22.4995 18.7425 22.4995 15C22.4995 10.8578 19.1418 7.5 14.9995 7.5Z" fill="white"/>
</svg>
