<svg width="32" height="30" viewBox="0 0 32 30" fill="none" xmlns="http://www.w3.org/2000/svg">
<rect width="32" height="30" rx="5" fill="white"/>
<path d="M11.7845 9.75026C11.7843 10.1481 11.6085 10.5295 11.2958 10.8107C10.983 11.0919 10.559 11.2497 10.117 11.2495C9.67498 11.2493 9.25114 11.0911 8.93874 10.8096C8.62633 10.5282 8.45095 10.1466 8.45117 9.74876C8.45139 9.35094 8.6272 8.96949 8.93992 8.68832C9.25263 8.40716 9.67664 8.24931 10.1187 8.24951C10.5607 8.24971 10.9845 8.40794 11.2969 8.68938C11.6093 8.97083 11.7847 9.35244 11.7845 9.75026ZM11.8345 12.3603H8.50117V21.7503H11.8345V12.3603ZM17.1012 12.3603H13.7845V21.7503H17.0678V16.8228C17.0678 14.0778 21.0428 13.8228 21.0428 16.8228V21.7503H24.3345V15.8028C24.3345 11.1753 18.4512 11.3478 17.0678 13.6203L17.1012 12.3603Z" fill="#684DF4"/>
</svg>
