<svg width="65" height="66" viewBox="0 0 65 66" fill="none" xmlns="http://www.w3.org/2000/svg">
<path d="M32.25 65.1426C50.0612 65.1426 64.5 50.7038 64.5 32.8926C64.5 15.0814 50.0612 0.642578 32.25 0.642578C14.4388 0.642578 2.10615e-09 15.0814 4.70421e-09 32.8926C7.30227e-09 50.7038 14.4388 65.1426 32.25 65.1426Z" fill="white" fill-opacity="0.2"/>
<path d="M31.9998 55.976C44.8865 55.976 55.3332 45.5293 55.3332 32.6427C55.3332 19.756 44.8865 9.30933 31.9998 9.30933C19.1132 9.30933 8.6665 19.756 8.6665 32.6427C8.6665 45.5293 19.1132 55.976 31.9998 55.976Z" fill="white"/>
<path d="M27.3335 23.3093L41.3335 32.6427L27.3335 41.976L27.3335 23.3093Z" fill="#684DF4"/>
</svg>
