<svg width="30" height="30" viewBox="0 0 30 30" fill="none" xmlns="http://www.w3.org/2000/svg">
<rect width="30" height="30" rx="5" fill="white"/>
<path d="M22.6207 10.2417C22.0482 10.495 21.441 10.6613 20.8192 10.7352C21.4746 10.3433 21.965 9.72646 22.1992 8.9997C21.5842 9.3657 20.91 9.6222 20.2072 9.76095C19.7352 9.25589 19.1095 8.92092 18.4275 8.80814C17.7454 8.69536 17.0452 8.81107 16.4357 9.13729C15.8262 9.46351 15.3415 9.98196 15.0571 10.612C14.7726 11.2421 14.7043 11.9485 14.8627 12.6215C13.6156 12.5589 12.3955 12.2348 11.2817 11.6702C10.1679 11.1056 9.18534 10.313 8.39775 9.34395C8.11896 9.82279 7.97246 10.3671 7.97325 10.9212C7.97325 12.0087 8.52675 12.9695 9.36825 13.532C8.87025 13.5163 8.38322 13.3818 7.94775 13.1397V13.1787C7.9479 13.903 8.19852 14.6049 8.65713 15.1655C9.11574 15.7261 9.75411 16.1108 10.464 16.2545C10.0017 16.3797 9.51698 16.3982 9.0465 16.3085C9.24665 16.9319 9.63675 17.4771 10.1622 17.8678C10.6876 18.2585 11.3221 18.475 11.9767 18.4872C11.3261 18.9982 10.5811 19.3759 9.78441 19.5988C8.98768 19.8217 8.15484 19.8854 7.3335 19.7862C8.76727 20.7083 10.4363 21.1978 12.141 21.1962C17.9107 21.1962 21.066 16.4165 21.066 12.2712C21.066 12.1362 21.0622 11.9997 21.0562 11.8662C21.6704 11.4223 22.2004 10.8725 22.6215 10.2425L22.6207 10.2417Z" fill="#684DF4"/>
</svg>
