<svg width="70" height="70" viewBox="0 0 70 70" fill="none" xmlns="http://www.w3.org/2000/svg">
<circle cx="35" cy="35" r="35" fill="white" fill-opacity="0.06"/>
<path d="M40 31.25C40 26.4175 36.0825 22.5 31.25 22.5C26.4175 22.5 22.5 26.4175 22.5 31.25C22.5 36.0825 26.4175 40 31.25 40" stroke="#684DF4" stroke-width="1.5"/>
<path d="M40 31.25H38.75C35.2145 31.25 33.4468 31.25 32.3484 32.3484C31.25 33.4468 31.25 35.2145 31.25 38.75V40C31.25 43.5355 31.25 45.3033 32.3484 46.4016C33.4468 47.5 35.2145 47.5 38.75 47.5H40C43.5355 47.5 45.3033 47.5 46.4016 46.4016C47.5 45.3033 47.5 43.5355 47.5 40V38.75C47.5 35.2145 47.5 33.4468 46.4016 32.3484C45.3033 31.25 43.5355 31.25 40 31.25Z" stroke="#684DF4" stroke-width="1.5"/>
</svg>
