<svg width="30" height="30" viewBox="0 0 30 30" fill="none" xmlns="http://www.w3.org/2000/svg">
<rect width="30" height="30" rx="5" fill="white"/>
<path d="M22.1577 10.873C22.5005 12.2095 22.5005 14.9995 22.5005 14.9995C22.5005 14.9995 22.5005 17.7895 22.1577 19.126C21.9672 19.8648 21.41 20.446 20.7042 20.6425C19.4225 20.9995 15.0005 20.9995 15.0005 20.9995C15.0005 20.9995 10.5807 20.9995 9.29674 20.6425C8.58799 20.443 8.03149 19.8625 7.84324 19.126C7.50049 17.7895 7.50049 14.9995 7.50049 14.9995C7.50049 14.9995 7.50049 12.2095 7.84324 10.873C8.03374 10.1343 8.59099 9.55301 9.29674 9.35651C10.5807 8.99951 15.0005 8.99951 15.0005 8.99951C15.0005 8.99951 19.4225 8.99951 20.7042 9.35651C21.413 9.55601 21.9695 10.1365 22.1577 10.873ZM13.5005 17.6245L18.0005 14.9995L13.5005 12.3745V17.6245Z" fill="#684DF4"/>
</svg>
